<?xml version="1.0" encoding="UTF-8"?>
<!-- Generated by Pixelmator Pro 3.3 -->
<svg width="398" height="409" viewBox="0 0 398 409" xmlns="http://www.w3.org/2000/svg" xmlns:xlink="http://www.w3.org/1999/xlink">
    <g id="SVGRepobgCarrier"/>
    <g id="SVGRepotracerCarrier"/>
    <g id="SVGRepoiconCarrier">
        <g id="XMLID11">
            <path id="XMLID12" fill="#ffffff" stroke="#ffffff" stroke-width="0.212121" d="M 199 218.318176 C 197.242798 218.318176 195.818176 219.742783 195.818176 221.5 L 195.818176 234.22728 C 195.818176 235.984482 197.242798 237.409088 199 237.409088 C 200.757217 237.409088 202.181824 235.984482 202.181824 234.22728 L 202.181824 221.5 C 202.181824 219.742783 200.757217 218.318176 199 218.318176 Z"/>
            <path id="XMLID13" fill="#ffffff" stroke="#ffffff" stroke-width="0.212121" d="M 199 170.590912 C 197.242798 170.590912 195.818176 172.015518 195.818176 173.77272 L 195.818176 180.136368 C 195.818176 181.89357 197.242798 183.318176 199 183.318176 C 200.757217 183.318176 202.181824 181.89357 202.181824 180.136368 L 202.181824 173.77272 C 202.181824 172.015518 200.757217 170.590912 199 170.590912 Z"/>
            <path id="XMLID14" fill="#ffffff" stroke="#ffffff" stroke-width="0.212121" d="M 183.090912 202.409088 C 183.090912 200.651871 181.666306 199.227264 179.909088 199.227264 L 167.181824 199.227264 C 165.424606 199.227264 164 200.651871 164 202.409088 C 164 204.166306 165.424606 205.590912 167.181824 205.590912 L 179.909088 205.590912 C 181.666306 205.590912 183.090912 204.166306 183.090912 202.409088 Z"/>
            <path id="XMLID15" fill="#ffffff" stroke="#ffffff" stroke-width="0.212121" d="M 230.818192 199.227264 L 218.090912 199.227264 C 216.333694 199.227264 214.909088 200.651871 214.909088 202.409088 C 214.909088 204.166306 216.333694 205.590912 218.090912 205.590912 L 230.818192 205.590912 C 232.575394 205.590912 234 204.166306 234 202.409088 C 234 200.651871 232.575394 199.227264 230.818192 199.227264 Z"/>
            <path id="XMLID16" fill="#ffffff" stroke="#ffffff" stroke-width="0.212121" d="M 183.250427 213.658524 L 174.251175 222.658188 C 173.008789 223.900787 173.008789 225.915298 174.251175 227.157913 C 174.872482 227.779205 175.686813 228.089767 176.501144 228.089767 C 177.315491 228.089767 178.129822 227.779205 178.751129 227.157913 L 187.75058 218.158249 C 188.992966 216.915634 188.992966 214.901123 187.750366 213.658524 C 186.507751 212.415909 184.49324 212.415909 183.250427 213.658524 Z"/>
            <path id="XMLID17" fill="#ffffff" stroke="#ffffff" stroke-width="0.212121" d="M 212.499191 192.091507 C 213.313522 192.091507 214.127853 191.780975 214.748947 191.159454 L 223.748398 182.15979 C 224.990997 180.917175 224.990997 178.902664 223.748398 177.660065 C 222.505997 176.417664 220.491272 176.41745 219.248672 177.660065 L 210.249207 186.659729 C 209.006607 187.902328 209.006607 189.91684 210.249207 191.159454 C 210.870514 191.780975 211.684845 192.091507 212.499191 192.091507 Z"/>
            <path id="XMLID18" fill="#ffffff" stroke="#ffffff" stroke-width="0.212121" d="M 214.748947 213.658508 C 213.50676 212.416122 211.491821 212.415909 210.249207 213.658295 C 209.006607 214.900909 209.006607 216.915421 210.249207 218.158035 L 219.248672 227.1577 C 219.869965 227.779007 220.684311 228.089539 221.498642 228.089539 C 222.312759 228.089539 223.127304 227.778793 223.748398 227.1577 C 224.990997 225.915085 224.990997 223.900574 223.748398 222.657974 L 214.748947 213.658508 Z"/>
        </g>
    </g>
</svg>
